<svg xmlns="http://www.w3.org/2000/svg" viewBox="0 0 800 500" fill="none">
  <rect width="800" height="500" fill="#F5EDE2"/>
  <!-- Table -->
  <rect x="200" y="280" width="400" height="12" rx="6" fill="#D4C0A8"/>
  <rect x="250" y="292" width="8" height="120" fill="#BB9F80"/>
  <rect x="542" y="292" width="8" height="120" fill="#BB9F80"/>
  <!-- Coffee cup -->
  <rect x="340" y="210" width="120" height="70" rx="8" fill="#FFFFFF" stroke="#6B4F3A" stroke-width="3"/>
  <ellipse cx="400" cy="215" rx="57" ry="12" fill="#6B4F3A" opacity="0.8"/>
  <!-- Handle -->
  <path d="M460 235 c20 0 25 20 0 25" stroke="#6B4F3A" stroke-width="3" fill="none"/>
  <!-- Steam -->
  <path d="M380 195 c0-15 10-15 10-30" stroke="#7FB77E" stroke-width="2" stroke-linecap="round" opacity="0.5"/>
  <path d="M400 190 c0-15 10-15 10-30" stroke="#7FB77E" stroke-width="2" stroke-linecap="round" opacity="0.6"/>
  <path d="M420 195 c0-15 10-15 10-30" stroke="#7FB77E" stroke-width="2" stroke-linecap="round" opacity="0.4"/>
  <!-- Laptop -->
  <rect x="500" y="240" width="100" height="65" rx="4" fill="#E8D9C8" stroke="#6B4F3A" stroke-width="2"/>
  <rect x="510" y="250" width="80" height="45" rx="2" fill="#FFFFFF"/>
  <rect x="480" y="275" width="140" height="5" rx="2" fill="#BB9F80"/>
  <!-- Plant -->
  <rect x="215" y="240" width="30" height="40" rx="4" fill="#BB9F80"/>
  <circle cx="230" cy="230" r="15" fill="#7FB77E" opacity="0.7"/>
  <circle cx="220" cy="220" r="10" fill="#7FB77E" opacity="0.5"/>
  <circle cx="240" cy="222" r="12" fill="#7FB77E" opacity="0.6"/>
  <!-- Placeholder text -->
  <text x="400" y="460" text-anchor="middle" font-family="sans-serif" font-size="14" fill="#BB9F80">placeholder – nahraďte reálnou fotografií</text>
</svg>
